0
SECTION
2
ENTITIES
0
LWPOLYLINE
8
A-WALL
90
4
70
1
10
0.0
20
0.0
10
1500.5
20
0.0
10
1500.5
20
750.5
10
0.0
20
750.5
0
LWPOLYLINE
8
A-AREA
90
4
70
1
10
50.0
20
250.0
10
230.0
20
250.0
10
230.0
20
490.0
10
50.0
20
490.0
0
TEXT
8
A-ANNO
10
140.0
20
370.0
40
250
1
계단실
0
LWPOLYLINE
8
A-AREA
90
4
70
1
10
260.0
20
250.0
10
380.0
20
250.0
10
380.0
20
370.0
10
260.0
20
370.0
0
TEXT
8
A-ANNO
10
320.0
20
310.0
40
250
1
E/V
0
LWPOLYLINE
8
A-AREA
90
4
70
1
10
410.0
20
250.0
10
470.0
20
250.0
10
470.0
20
310.0
10
410.0
20
310.0
0
TEXT
8
A-ANNO
10
440.0
20
280.0
40
250
1
PS/AD
0
LWPOLYLINE
8
A-AREA
90
4
70
1
10
500.0
20
250.0
10
650.0
20
250.0
10
650.0
20
370.0
10
500.0
20
370.0
0
TEXT
8
A-ANNO
10
575.0
20
310.0
40
250
1
화장실
0
LWPOLYLINE
8
A-COLS
90
4
70
1
10
150.0
20
50.0
10
180.0
20
50.0
10
180.0
20
80.0
10
150.0
20
80.0
0
LWPOLYLINE
8
A-COLS
90
4
70
1
10
390.0
20
50.0
10
420.0
20
50.0
10
420.0
20
80.0
10
390.0
20
80.0
0
LWPOLYLINE
8
A-COLS
90
4
70
1
10
630.0
20
50.0
10
660.0
20
50.0
10
660.0
20
80.0
10
630.0
20
80.0
0
LWPOLYLINE
8
A-COLS
90
4
70
1
10
870.0
20
50.0
10
900.0
20
50.0
10
900.0
20
80.0
10
870.0
20
80.0
0
LWPOLYLINE
8
A-COLS
90
4
70
1
10
1110.0
20
50.0
10
1140.0
20
50.0
10
1140.0
20
80.0
10
1110.0
20
80.0
0
LWPOLYLINE
8
A-COLS
90
4
70
1
10
1350.0
20
50.0
10
1380.0
20
50.0
10
1380.0
20
80.0
10
1350.0
20
80.0
0
LINE
8
창호
10
100.0
20
0.0
11
250.0
21
0.0
0
LINE
8
창호
10
350.0
20
0.0
11
500.0
21
0.0
0
LINE
8
창호
10
600.0
20
0.0
11
750.0
21
0.0
0
LINE
8
창호
10
850.0
20
0.0
11
1000.0
21
0.0
0
LINE
8
창호
10
1100.0
20
0.0
11
1250.0
21
0.0
0
ENDSEC
0
EOF
