0
SECTION
2
HEADER
9
$INSUNITS
70
6
0
ENDSEC
0
SECTION
2
ENTITIES
0
LWPOLYLINE
8
A-WALL
90
4
70
1
10
0.0
20
0.0
10
30.01
20
0.0
10
30.01
20
15.01
10
0.0
20
15.01
0
LWPOLYLINE
8
A-AREA
90
4
70
1
10
1.0
20
5.0
10
4.6
20
5.0
10
4.6
20
9.8
10
1.0
20
9.8
0
TEXT
8
A-ANNO
10
2.8000000000000003
20
7.4
40
250
1
계단실
0
LWPOLYLINE
8
A-AREA
90
4
70
1
10
5.2
20
5.0
10
7.6
20
5.0
10
7.6
20
7.4
10
5.2
20
7.4
0
TEXT
8
A-ANNO
10
6.4
20
6.2
40
250
1
E/V
0
LWPOLYLINE
8
A-AREA
90
4
70
1
10
8.2
20
5.0
10
9.399999999999999
20
5.0
10
9.399999999999999
20
6.2
10
8.2
20
6.2
0
TEXT
8
A-ANNO
10
8.8
20
5.6000000000000005
40
250
1
PS/AD
0
LWPOLYLINE
8
A-AREA
90
4
70
1
10
10.0
20
5.0
10
13.0
20
5.0
10
13.0
20
7.4
10
10.0
20
7.4
0
TEXT
8
A-ANNO
10
11.5
20
6.2
40
250
1
화장실
0
LWPOLYLINE
8
A-COLS
90
4
70
1
10
3.0
20
1.0
10
3.6
20
1.0
10
3.6
20
1.6
10
3.0
20
1.6
0
LWPOLYLINE
8
A-COLS
90
4
70
1
10
7.8
20
1.0
10
8.4
20
1.0
10
8.4
20
1.6
10
7.8
20
1.6
0
LWPOLYLINE
8
A-COLS
90
4
70
1
10
12.6
20
1.0
10
13.2
20
1.0
10
13.2
20
1.6
10
12.6
20
1.6
0
LWPOLYLINE
8
A-COLS
90
4
70
1
10
17.400000000000002
20
1.0
10
18.000000000000004
20
1.0
10
18.000000000000004
20
1.6
10
17.400000000000002
20
1.6
0
LWPOLYLINE
8
A-COLS
90
4
70
1
10
22.2
20
1.0
10
22.8
20
1.0
10
22.8
20
1.6
10
22.2
20
1.6
0
LWPOLYLINE
8
A-COLS
90
4
70
1
10
27.0
20
1.0
10
27.6
20
1.0
10
27.6
20
1.6
10
27.0
20
1.6
0
LINE
8
창호
10
2.0
20
0.0
11
5.0
21
0.0
0
LINE
8
창호
10
7.0
20
0.0
11
10.0
21
0.0
0
LINE
8
창호
10
12.0
20
0.0
11
15.0
21
0.0
0
LINE
8
창호
10
17.0
20
0.0
11
20.0
21
0.0
0
LINE
8
창호
10
22.0
20
0.0
11
25.0
21
0.0
0
ENDSEC
0
EOF
