0
SECTION
2
HEADER
9
$INSUNITS
70
4
0
ENDSEC
0
SECTION
2
ENTITIES
0
LWPOLYLINE
8
A-WALL
90
4
70
1
10
0.0
20
0.0
10
30010.0
20
0.0
10
30010.0
20
15010.0
10
0.0
20
15010.0
0
LWPOLYLINE
8
A-AREA
90
4
70
1
10
1000.0
20
5000.0
10
4600.0
20
5000.0
10
4600.0
20
9800.0
10
1000.0
20
9800.0
0
TEXT
8
A-ANNO
10
2800.0
20
7400.0
40
250
1
창고
0
LWPOLYLINE
8
A-AREA
90
4
70
1
10
5200.0
20
5000.0
10
7600.0
20
5000.0
10
7600.0
20
7400.0
10
5200.0
20
7400.0
0
TEXT
8
A-ANNO
10
6400.0
20
6200.0
40
250
1
E/V
0
LWPOLYLINE
8
A-AREA
90
4
70
1
10
8200.0
20
5000.0
10
9400.0
20
5000.0
10
9400.0
20
6200.0
10
8200.0
20
6200.0
0
TEXT
8
A-ANNO
10
8800.0
20
5600.0
40
250
1
PS/AD
0
LWPOLYLINE
8
A-AREA
90
4
70
1
10
10000.0
20
5000.0
10
13000.0
20
5000.0
10
13000.0
20
7400.0
10
10000.0
20
7400.0
0
TEXT
8
A-ANNO
10
11500.0
20
6200.0
40
250
1
화장실
0
LWPOLYLINE
8
A-COLS
90
4
70
1
10
3000.0
20
1000.0
10
3600.0
20
1000.0
10
3600.0
20
1600.0
10
3000.0
20
1600.0
0
LWPOLYLINE
8
A-COLS
90
4
70
1
10
7800.0
20
1000.0
10
8400.0
20
1000.0
10
8400.0
20
1600.0
10
7800.0
20
1600.0
0
LWPOLYLINE
8
A-COLS
90
4
70
1
10
12600.0
20
1000.0
10
13200.0
20
1000.0
10
13200.0
20
1600.0
10
12600.0
20
1600.0
0
LWPOLYLINE
8
A-COLS
90
4
70
1
10
17400.0
20
1000.0
10
18000.0
20
1000.0
10
18000.0
20
1600.0
10
17400.0
20
1600.0
0
LWPOLYLINE
8
A-COLS
90
4
70
1
10
22200.0
20
1000.0
10
22800.0
20
1000.0
10
22800.0
20
1600.0
10
22200.0
20
1600.0
0
LWPOLYLINE
8
A-COLS
90
4
70
1
10
27000.0
20
1000.0
10
27600.0
20
1000.0
10
27600.0
20
1600.0
10
27000.0
20
1600.0
0
LINE
8
창호
10
2000.0
20
0.0
11
5000.0
21
0.0
0
LINE
8
창호
10
7000.0
20
0.0
11
10000.0
21
0.0
0
LINE
8
창호
10
12000.0
20
0.0
11
15000.0
21
0.0
0
LINE
8
창호
10
17000.0
20
0.0
11
20000.0
21
0.0
0
LINE
8
창호
10
22000.0
20
0.0
11
25000.0
21
0.0
0
ENDSEC
0
EOF
